<svg id="Слой_1" data-name="Слой 1" xmlns="http://www.w3.org/2000/svg" viewBox="0 0 100 100"><title>icons</title><path d="M49.83,91.55q-11,0-21.94,0c-3.88,0-7.76,0-11.65-.08a3.36,3.36,0,0,1-.91-.12A9.14,9.14,0,0,1,8.6,84.49a3.91,3.91,0,0,1-.11-.86c0-.94,0-1.88,0-2.82q0-27.44,0-54.88c0-1,0-2,0-3a2.25,2.25,0,0,1,.09-.64A9.88,9.88,0,0,1,10.2,19q2.66-3.28,5.36-6.53c.66-.79,1.35-1.55,2.06-2.3a5.19,5.19,0,0,1,3.92-1.66c2.13,0,4.26,0,6.39,0L68,8.42c2,0,4,0,6,0,1.53,0,3.07,0,4.6,0a4,4,0,0,1,2.4.72,10.49,10.49,0,0,1,1.67,1.37c1.07,1.15,2.09,2.34,3.1,3.54s2,2.45,3,3.68a13.74,13.74,0,0,1,2.53,4.32,3.54,3.54,0,0,1,.2,1.16q0,18.2,0,36.4c0,7.69,0,15.38,0,23.08A8.34,8.34,0,0,1,89.65,88a9.17,9.17,0,0,1-4.22,3.09,5.92,5.92,0,0,1-2,.36c-3.52,0-7,.09-10.56.1q-11.54,0-23.08,0ZM24.89,50.09C25.3,50.74,49.4,74.87,50,75.23a3.5,3.5,0,0,0,.33-.25c.64-.61,1.29-1.21,1.92-1.83,1.71-1.71,3.4-3.43,5.11-5.14s3.71-3.69,5.56-5.53l3.52-3.52c.93-.93,1.87-1.85,2.8-2.78s1.71-1.76,2.57-2.63l3-3a4.55,4.55,0,0,0,.32-.43H59.21V40.84c-.65-.12-18.05-.1-18.49,0v9.22ZM81.44,17.56l.06-.1-.35-.4q-1.69-1.83-3.38-3.66a.75.75,0,0,0-.36-.2,3,3,0,0,0-.64-.07c-2.82,0-5.63-.06-8.45-.07L26.65,13H22.37a.62.62,0,0,0-.57.21c-1.05,1.33-2.12,2.65-3.17,4a2.07,2.07,0,0,0-.17.35Z"/></svg>