<svg id="Слой_1" data-name="Слой 1" xmlns="http://www.w3.org/2000/svg" viewBox="0 0 100 100"><title>icons</title><path d="M58.88,4.5c1.89.61,3.49,1.61,4,3.66a33,33,0,0,1,.41,4.3H57.66v-2.4H42.44v2.41H37.07c-.51-3.66.07-6,2.75-7.43.41-.22.86-.36,1.29-.54Z"/><path d="M50.05,34.33H75.11c2.44,0,3.25,1,3,3.42-.52,6.19-1,12.39-1.5,18.59s-1,12.51-1.53,18.77c-.38,4.72-.8,9.44-1.12,14.17-.28,4.07-2.49,6.22-6.54,6.22H32.54c-3.86,0-6.06-1.9-6.42-5.74-.51-5.51-.92-11-1.36-16.55Q24,63.74,23.23,54.26q-.69-8.59-1.36-17.18c-.13-1.77.88-2.76,2.77-2.76ZM47.32,65.15q0,7.91,0,15.81c0,2,0,4.09,0,6.13a2.71,2.71,0,0,0,3.9,2.45,3,3,0,0,0,1.59-3q0-21.32,0-42.64a5.58,5.58,0,0,0-.06-1A2.64,2.64,0,0,0,51,40.75a2.73,2.73,0,0,0-3.67,2.81Q47.31,54.35,47.32,65.15Zm-8,21.8c-.35-5.53-.69-10.85-1-16.16q-.83-13.61-1.66-27.21a4.57,4.57,0,0,0-.22-1.22,2.73,2.73,0,0,0-3-1.75,2.64,2.64,0,0,0-2.29,2.74c.12,2.9.33,5.79.51,8.69q1.07,17.51,2.15,35a2.75,2.75,0,1,0,5.5-.09ZM68.86,44.76h0c0-.38.06-.77.07-1.15a2.75,2.75,0,0,0-2.48-3,2.69,2.69,0,0,0-3,2.63c-.15,2-.24,4-.36,5.94Q62,67.85,60.88,86.56a2.77,2.77,0,1,0,5.49.31q.55-9.4,1.1-18.79Q68.16,56.42,68.86,44.76Z"/><path d="M50,28.83c-10.84,0-21.67,0-32.51,0a4.11,4.11,0,0,1-2.18-.73,1.79,1.79,0,0,1-.57-2.1c.61-1.88,1.19-3.78,1.88-5.63A3.57,3.57,0,0,1,20.34,18H79.24c2.71,0,3.7.71,4.55,3.28.46,1.37.93,2.74,1.38,4.12.66,2.05-.32,3.4-2.49,3.4Z"/></svg>