<svg id="Слой_1" data-name="Слой 1" xmlns="http://www.w3.org/2000/svg" viewBox="0 0 100 100"><title>icons</title><path d="M26.43,77.72l6-6.1a30.41,30.41,0,1,0-9-20.84c1-1,1.89-1.87,2.77-2.77s1.77-1.86,2.59-2.73l6.05,6.08L19.18,67.08,3.36,51.26l5.91-5.91,5.19,5.26.25-.05c.09-11.05,3.84-20.6,11.73-28.33A38.24,38.24,0,0,1,55,11c17.07.33,32.54,12.85,36.58,29.6A38.94,38.94,0,0,1,26.43,77.72Z"/><path d="M49.46,32.71h6.44V33.8c0,5.41,0,10.82,0,16.24a1.24,1.24,0,0,0,1,1.37c5.27,2,10.52,4.06,15.77,6.1.19.07.37.16.68.3L71.14,63l-10.34-4c-3.55-1.39-7.11-2.78-10.67-4.15-.49-.19-.76-.39-.75-1,0-6.87,0-13.73,0-20.6C49.4,33.06,49.43,32.93,49.46,32.71Z"/></svg>